<?xml version="1.0" standalone="no"?>
<!DOCTYPE svg PUBLIC "-//W3C//DTD SVG 20010904//EN"
 "http://www.w3.org/TR/2001/REC-SVG-20010904/DTD/svg10.dtd">
<svg version="1.0" xmlns="http://www.w3.org/2000/svg"
 width="500.000000pt" height="500.000000pt" viewBox="0 0 500.000000 500.000000"
 preserveAspectRatio="xMidYMid meet">

<g transform="translate(0.000000,500.000000) scale(0.100000,-0.100000)"
fill="#000000" stroke="none">
<path d="M2250 4125 c-471 -80 -860 -331 -1121 -723 -38 -58 -69 -109 -69
-115 0 -6 -6 -18 -14 -26 -8 -9 -28 -48 -45 -86 -23 -55 -27 -73 -18 -84 9
-11 9 -13 0 -8 -13 8 -29 -15 -37 -54 -3 -13 -12 -43 -21 -67 -8 -24 -13 -48
-10 -53 4 -5 2 -9 -3 -9 -4 0 -17 -44 -27 -97 -17 -90 -22 -103 -71 -168 -57
-76 -128 -217 -139 -276 -5 -26 -2 -39 9 -48 36 -30 38 -73 10 -182 -15 -57
-27 -126 -27 -154 0 -61 47 -188 102 -272 37 -57 39 -59 75 -55 25 3 36 9 32
17 -16 42 -28 144 -24 208 3 65 1 77 -15 87 -10 6 -29 34 -43 63 -55 119 -14
288 106 433 142 172 355 232 544 152 58 -25 108 -60 147 -103 26 -28 28 -29
35 -10 61 175 127 289 212 366 104 96 221 128 337 94 90 -26 138 -64 176 -140
29 -60 31 -70 27 -147 -3 -48 -11 -96 -20 -113 l-16 -30 47 3 47 4 38 101 c52
137 173 385 234 477 60 90 132 164 176 180 17 6 46 18 64 26 45 19 119 17 169
-5 23 -11 45 -16 49 -13 4 4 4 2 1 -4 -4 -6 0 -20 8 -30 8 -10 15 -27 15 -36
0 -10 6 -18 13 -18 7 0 18 24 26 58 16 71 52 153 80 181 57 57 168 54 232 -6
14 -13 29 -20 33 -16 4 4 4 -1 0 -11 -4 -11 -3 -17 2 -14 5 4 9 -13 8 -38 -1
-24 2 -42 6 -39 7 5 24 64 21 78 0 4 4 7 9 7 6 0 10 6 10 13 0 6 13 32 29 56
17 25 28 48 25 53 -3 5 -1 7 4 6 10 -3 95 81 96 94 2 13 17 22 38 23 12 0 22
6 24 13 1 7 0 8 -3 2 -8 -16 -26 -12 -19 5 5 13 2 13 -25 0 -16 -9 -27 -20
-24 -25 4 -6 1 -10 -5 -10 -6 0 -9 -4 -5 -9 10 -17 -12 -21 -31 -5 -17 14 -17
15 -2 10 22 -7 56 49 35 57 -6 2 -1 5 13 5 14 0 38 4 53 7 15 4 27 4 26 -1 -5
-28 1 -33 26 -22 14 6 25 14 25 18 0 14 -121 41 -153 35 -24 -5 -28 -4 -17 4
11 8 -7 11 -70 9 -59 -2 -84 -7 -83 -15 2 -7 -17 7 -41 30 -160 156 -492 310
-771 357 -140 23 -401 26 -525 5z m425 -136 c249 -30 538 -143 712 -279 l22
-17 -57 -36 c-61 -38 -156 -133 -208 -209 -40 -57 -117 -98 -187 -98 -27 0
-85 10 -130 22 -66 18 -109 22 -217 22 -162 0 -219 -13 -370 -86 -99 -47 -112
-58 -226 -173 -132 -134 -179 -165 -282 -185 -49 -10 -82 -10 -145 -1 -109 15
-157 14 -263 -4 -72 -13 -168 -45 -272 -92 -16 -7 -10 20 29 135 15 45 25 82
21 82 -4 0 -2 4 5 8 6 4 23 33 37 65 14 32 48 95 76 140 28 45 56 91 63 102 6
11 17 24 23 30 5 5 43 47 83 93 83 93 221 207 331 274 159 95 372 173 540 197
41 6 86 13 100 15 55 8 230 5 315 -5z m1125 -273 c-7 -7 -14 -6 -21 1 -9 9 -7
12 9 10 14 -1 18 -5 12 -11z m-378 -68 c-8 -8 -9 -4 -5 13 4 13 8 18 11 10 2
-7 -1 -18 -6 -23z m282 -16 c3 -5 -1 -9 -9 -9 -8 0 -12 4 -9 9 3 4 7 8 9 8 2
0 6 -4 9 -8z m36 -30 c0 -14 -48 -54 -53 -45 -8 13 8 34 24 31 8 -2 13 3 12
10 -2 6 2 12 7 12 6 0 10 -4 10 -8z m-100 -128 c0 -8 -19 -13 -24 -6 -3 5 1 9
9 9 8 0 15 -2 15 -3z m-55 -14 c-3 -5 2 -10 11 -10 10 0 15 -3 11 -6 -10 -10
-39 5 -32 16 3 5 8 10 11 10 3 0 2 -4 -1 -10z m-2428 -245 c0 -8 -4 -12 -9 -9
-5 3 -6 10 -3 15 9 13 12 11 12 -6z m-142 -93 c-3 -3 -11 0 -18 7 -9 10 -8 11
6 5 10 -3 15 -9 12 -12z m72 -76 c0 -8 -6 -12 -15 -9 -11 5 -11 7 0 14 7 5 13
9 14 9 0 0 1 -6 1 -14z m-130 -61 c0 -8 -4 -12 -9 -9 -5 3 -6 10 -3 15 9 13
12 11 12 -6z"/>
<path d="M2531 3776 c-51 -28 -66 -97 -31 -146 39 -55 120 -56 159 -1 32 44
27 87 -13 127 -37 37 -73 43 -115 20z"/>
<path d="M1545 3364 c-96 -49 -130 -145 -85 -233 74 -145 279 -121 320 37 20
78 -16 154 -91 192 -46 24 -103 26 -144 4z"/>
<path d="M4545 3822 c3 -3 19 -7 36 -8 17 -2 28 0 25 3 -3 3 -19 7 -36 8 -17
1 -28 0 -25 -3z"/>
<path d="M4456 3603 c-6 -14 -5 -15 5 -6 7 7 10 15 7 18 -3 3 -9 -2 -12 -12z"/>
<path d="M3846 3542 c-3 -5 1 -9 9 -9 8 0 12 4 9 9 -3 4 -7 8 -9 8 -2 0 -6 -4
-9 -8z"/>
<path d="M4585 3490 c-3 -6 1 -7 9 -4 18 7 21 14 7 14 -6 0 -13 -4 -16 -10z"/>
<path d="M4415 3459 c-4 -6 -5 -12 -2 -15 2 -3 7 2 10 11 7 17 1 20 -8 4z"/>
<path d="M4510 3440 c-9 -6 -10 -10 -3 -10 6 0 15 5 18 10 8 12 4 12 -15 0z"/>
<path d="M4456 3423 c-6 -14 -5 -15 5 -6 7 7 10 15 7 18 -3 3 -9 -2 -12 -12z"/>
<path d="M4395 3380 c-3 -6 1 -7 9 -4 18 7 21 14 7 14 -6 0 -13 -4 -16 -10z"/>
<path d="M4173 3365 c0 -8 4 -12 9 -9 5 3 6 10 3 15 -9 13 -12 11 -12 -6z"/>
<path d="M3574 3297 c-3 -8 -6 -21 -8 -29 -1 -7 -5 -19 -9 -25 -5 -8 -3 -13 5
-13 10 0 11 -2 0 -8 -7 -5 -14 -24 -16 -44 -2 -19 -6 -40 -9 -45 -10 -16 -29
-153 -24 -167 3 -8 1 -18 -4 -23 -4 -4 -12 -66 -15 -136 l-7 -128 26 12 c22
10 25 15 14 27 -10 13 -9 14 7 5 15 -8 28 -7 53 5 18 9 33 19 33 22 0 4 6 7
13 8 6 1 40 5 74 10 34 4 60 5 57 0 -5 -7 16 -11 51 -11 6 0 16 -6 23 -13 7
-8 10 -14 6 -14 -4 0 5 -13 21 -30 16 -16 30 -40 32 -52 2 -13 4 -29 5 -35 1
-9 5 -9 13 -3 7 6 16 5 26 -3 8 -6 6 -3 -3 8 -17 18 -17 20 9 41 l27 22 -36
-3 c-28 -3 -35 0 -31 11 3 9 -2 14 -18 15 l-24 0 22 11 c12 6 24 17 28 26 5
13 3 13 -11 1 -9 -7 -26 -14 -37 -16 -18 -2 -19 -1 -7 7 13 9 13 10 0 10 -13
0 -13 2 0 11 13 9 12 10 -2 5 -10 -3 -18 -1 -18 4 0 6 5 10 12 10 7 0 6 6 -4
18 -26 30 -29 51 -7 49 11 -1 19 -9 19 -19 0 -10 5 -18 10 -18 13 0 13 37 0
45 -6 4 -8 10 -5 15 3 4 -8 22 -24 39 -28 30 -25 55 4 31 18 -15 19 -9 4 24
-9 19 -9 29 0 39 9 12 3 13 -38 9 -28 -2 -60 -2 -73 1 -32 8 -105 72 -124 109
-27 52 -43 128 -33 161 9 32 4 51 -7 24z m1 -147 c3 -5 1 -10 -4 -10 -6 0 -11
5 -11 10 0 6 2 10 4 10 3 0 8 -4 11 -10z m60 -99 c-3 -5 3 -12 12 -15 15 -4
14 -4 -2 -3 -11 1 -25 -2 -31 -5 -6 -4 -11 -1 -11 7 0 8 4 12 8 9 4 -2 10 0
14 6 3 5 8 10 11 10 3 0 3 -4 -1 -9z m25 -41 c-18 -12 -30 -13 -30 -2 0 4 10
9 22 9 18 2 20 0 8 -7z m130 -50 c-8 -5 -18 -6 -24 -3 -5 4 -1 10 10 13 24 9
34 2 14 -10z m-30 -150 c0 -5 -2 -10 -4 -10 -3 0 -8 5 -11 10 -3 6 -1 10 4 10
6 0 11 -4 11 -10z m170 -155 c-14 -17 -30 -20 -30 -6 0 5 8 12 18 14 9 3 19 5
21 6 2 0 -2 -6 -9 -14z"/>
<path d="M3922 3228 c-10 -30 -10 -31 3 -14 13 17 21 46 12 46 -1 0 -8 -15
-15 -32z"/>
<path d="M4049 3258 c-5 -18 -6 -38 -1 -34 7 8 12 36 6 36 -2 0 -4 -1 -5 -2z"/>
<path d="M4367 3229 c7 -7 15 -10 18 -7 3 3 -2 9 -12 12 -14 6 -15 5 -6 -5z"/>
<path d="M3196 3189 c-29 -81 -66 -372 -49 -382 6 -4 13 27 17 76 3 45 15 134
25 197 18 102 20 148 7 109z"/>
<path d="M3906 3158 c1 -13 3 -30 4 -38 1 -8 6 -4 10 10 12 38 11 50 -3 50 -8
0 -13 -9 -11 -22z"/>
<path d="M3070 3150 c-9 -6 -10 -10 -3 -10 6 0 15 5 18 10 8 12 4 12 -15 0z"/>
<path d="M3295 3121 c-3 -5 -2 -12 3 -15 5 -3 9 1 9 9 0 17 -3 19 -12 6z"/>
<path d="M3756 3121 c-4 -5 -2 -12 3 -15 5 -4 12 -2 15 3 4 5 2 12 -3 15 -5 4
-12 2 -15 -3z"/>
<path d="M2891 3106 c-9 -11 -9 -16 1 -22 7 -4 10 -4 6 1 -4 4 -3 14 3 22 6 7
9 13 6 13 -2 0 -10 -6 -16 -14z"/>
<path d="M4336 3111 c-3 -5 2 -15 12 -22 15 -12 16 -12 5 2 -7 9 -10 19 -6 22
3 4 4 7 0 7 -3 0 -8 -4 -11 -9z"/>
<path d="M3413 3083 c-3 -10 -8 -22 -11 -27 -3 -5 0 -6 5 -3 11 7 25 47 17 47
-3 0 -7 -8 -11 -17z"/>
<path d="M4016 3062 c-3 -5 1 -9 9 -9 8 0 12 4 9 9 -3 4 -7 8 -9 8 -2 0 -6 -4
-9 -8z"/>
<path d="M4124 3028 c-4 -6 -3 -8 4 -4 6 4 12 -5 15 -21 4 -26 4 -26 6 5 1 32
-11 42 -25 20z"/>
<path d="M3910 2991 c0 -5 -11 -12 -25 -15 -30 -8 -24 -32 11 -39 22 -4 24 -1
24 29 0 19 -2 34 -5 34 -3 0 -5 -4 -5 -9z"/>
<path d="M4010 2975 c0 -8 4 -15 8 -15 5 0 9 7 9 15 0 8 -4 15 -9 15 -4 0 -8
-7 -8 -15z"/>
<path d="M4596 2973 c-6 -14 -5 -15 5 -6 7 7 10 15 7 18 -3 3 -9 -2 -12 -12z"/>
<path d="M3387 2919 c4 -13 8 -18 11 -10 2 7 -1 18 -6 23 -8 8 -9 4 -5 -13z"/>
<path d="M3877 2913 c-3 -5 -2 -15 2 -22 7 -10 10 -10 16 -1 4 6 3 16 -3 22
-5 5 -12 6 -15 1z"/>
<path d="M4280 2910 c-8 -5 -12 -12 -9 -15 4 -3 12 1 19 10 14 17 11 19 -10 5z"/>
<path d="M3920 2891 c0 -11 4 -22 9 -25 4 -3 6 6 3 19 -5 30 -12 33 -12 6z"/>
<path d="M3924 2828 c0 -10 4 -18 9 -18 4 0 5 -5 1 -12 -4 -7 -3 -8 5 -4 15
10 43 -13 34 -27 -3 -6 -1 -7 5 -3 16 10 4 34 -20 42 -16 5 -18 8 -7 15 11 7
11 9 1 9 -7 0 -11 4 -8 8 3 5 0 9 -7 9 -7 0 -13 -9 -13 -19z"/>
<path d="M2184 2828 c-4 -7 -4 -10 1 -6 4 4 15 2 24 -5 14 -11 14 -10 2 6 -16
20 -18 21 -27 5z"/>
<path d="M1895 2780 c-3 -6 1 -7 9 -4 18 7 21 14 7 14 -6 0 -13 -4 -16 -10z"/>
<path d="M3878 2765 c-3 -14 -2 -28 2 -30 11 -7 21 38 11 48 -5 5 -11 -3 -13
-18z"/>
<path d="M4000 2756 c0 -2 7 -9 15 -16 13 -11 14 -10 9 4 -5 14 -24 23 -24 12z"/>
<path d="M4027 2715 c-8 -8 -17 -12 -19 -10 -3 3 -5 -2 -5 -10 0 -12 6 -10 26
7 14 13 28 24 30 26 2 1 -1 2 -7 2 -6 0 -17 -7 -25 -15z"/>
<path d="M2901 2703 c-1 -17 16 -25 25 -12 4 7 3 9 -4 5 -5 -3 -13 0 -15 6 -4
9 -6 10 -6 1z"/>
<path d="M3111 2684 c0 -11 3 -14 6 -6 3 7 2 16 -1 19 -3 4 -6 -2 -5 -13z"/>
<path d="M2033 2617 c-32 -52 -76 -158 -69 -164 10 -10 69 90 87 146 10 35 18
65 16 67 -2 2 -17 -20 -34 -49z"/>
<path d="M3971 2657 c-6 -8 -7 -18 -3 -22 4 -5 -2 -5 -12 -1 -16 5 -17 4 -6
-9 7 -8 17 -15 23 -15 6 0 7 3 4 7 -4 3 -2 12 4 20 6 7 8 13 3 13 -5 0 -2 5 6
10 8 5 10 10 4 10 -6 0 -17 -6 -23 -13z"/>
<path d="M3255 2651 c-3 -5 -2 -12 3 -15 5 -3 9 1 9 9 0 17 -3 19 -12 6z"/>
<path d="M2640 2646 c0 -2 7 -7 16 -10 8 -3 12 -2 9 4 -6 10 -25 14 -25 6z"/>
<path d="M4110 2630 c0 -5 5 -10 11 -10 5 0 7 5 4 10 -3 6 -8 10 -11 10 -2 0
-4 -4 -4 -10z"/>
<path d="M2580 2626 c0 -2 8 -10 18 -17 15 -13 16 -12 3 4 -13 16 -21 21 -21
13z"/>
<path d="M3915 2590 c-3 -5 -1 -10 4 -10 6 0 11 5 11 10 0 6 -2 10 -4 10 -3 0
-8 -4 -11 -10z"/>
<path d="M3966 2588 c5 -8 1 -9 -12 -4 -14 5 -16 4 -7 -5 6 -6 16 -8 22 -5 14
9 14 26 0 26 -5 0 -7 -5 -3 -12z"/>
<path d="M1865 2571 c-3 -5 0 -13 6 -17 7 -4 9 -3 5 4 -3 5 0 13 6 15 9 4 10
6 1 6 -6 1 -14 -3 -18 -8z"/>
<path d="M3143 2572 c-7 -5 -12 -29 -11 -56 0 -44 3 -49 32 -61 17 -7 32 -12
34 -10 3 2 -37 127 -42 132 -1 1 -7 -1 -13 -5z"/>
<path d="M3756 2568 c3 -5 10 -6 15 -3 13 9 11 12 -6 12 -8 0 -12 -4 -9 -9z"/>
<path d="M3795 2570 c-3 -5 -1 -10 4 -10 6 0 11 5 11 10 0 6 -2 10 -4 10 -3 0
-8 -4 -11 -10z"/>
<path d="M3901 2539 c-15 -44 -15 -45 15 -9 15 17 24 34 20 37 -3 4 -6 0 -6
-8 0 -12 -2 -12 -9 -1 -6 10 -11 5 -20 -19z"/>
<path d="M2715 2550 c-4 -6 -10 -8 -15 -5 -5 3 -11 1 -14 -4 -8 -13 22 -7 36
7 7 7 9 12 6 12 -4 0 -10 -5 -13 -10z"/>
<path d="M3639 2533 c-12 -16 -12 -17 2 -6 9 7 20 9 24 5 5 -4 5 -1 1 6 -9 16
-11 15 -27 -5z"/>
<path d="M3997 2423 c-62 -1055 -1142 -1717 -2108 -1293 -102 45 -233 122
-289 170 -34 29 -35 29 -10 30 38 0 155 36 224 68 34 16 102 56 151 89 110 74
148 87 248 86 95 -2 167 -32 272 -117 81 -66 222 -138 314 -161 103 -26 252
-31 351 -11 46 10 89 20 95 24 5 4 17 7 25 9 8 1 36 12 62 24 35 16 45 26 43
41 -2 10 0 16 6 13 5 -4 7 -11 4 -16 -11 -17 7 -9 57 22 33 22 47 37 43 47 -4
11 -2 12 8 4 9 -8 23 -1 57 31 77 73 98 101 84 114 -6 7 -15 9 -18 6 -3 -4 -6
-1 -6 5 0 16 13 15 29 0 10 -11 16 -8 32 11 10 12 16 27 13 32 -3 5 -1 9 4 9
13 0 41 44 45 69 2 10 9 26 16 35 7 8 14 21 15 28 2 7 6 21 10 30 4 9 9 23 10
32 1 8 5 19 9 22 13 13 7 33 -8 28 -8 -4 -12 -11 -8 -18 3 -6 2 -7 -2 -3 -12
10 -15 38 -7 51 10 16 11 36 3 36 -5 0 -7 12 -6 28 0 16 7 27 16 27 10 0 15
14 17 50 4 57 -3 57 -17 -1 l-9 -39 -1 42 c-1 23 4 43 10 45 7 2 8 17 3 43 -7
37 -8 38 -15 15 -6 -20 -7 -21 -8 -5 0 11 3 26 8 34 7 11 12 4 21 -25 19 -68
24 -142 10 -159 -11 -13 -10 -14 4 -9 13 5 16 22 16 96 0 49 -3 87 -7 85 -9
-6 -8 101 1 110 10 10 7 33 -5 33 -6 0 -9 -7 -6 -14 4 -11 1 -13 -11 -10 -13
5 -14 4 -4 -4 11 -7 11 -10 -2 -15 -24 -9 -28 8 -6 28 16 14 17 20 8 27 -10 6
-10 8 0 8 6 0 12 5 12 10 0 6 -7 10 -15 10 -8 0 -15 5 -15 10 0 6 5 10 10 10
20 0 9 35 -15 46 -33 16 -104 -17 -102 -47 1 -10 5 -19 9 -19 4 0 8 -4 8 -8 0
-11 -39 -13 -45 -1 -3 5 0 6 8 3 8 -3 14 2 14 11 0 8 -4 15 -9 15 -5 0 -6 5
-2 12 8 12 -100 -46 -127 -69 -8 -7 -21 -13 -28 -13 -6 0 -14 -7 -17 -15 -4
-8 -10 -13 -14 -10 -13 8 -93 -72 -87 -87 2 -8 -3 -15 -12 -16 -9 -1 -35 -5
-57 -8 -23 -3 -51 -1 -62 5 -16 9 -26 3 -65 -34 -77 -74 -169 -83 -259 -26
-55 35 -96 112 -105 195 -3 31 -10 56 -16 56 -20 0 -96 -50 -101 -68 -22 -75
-37 -204 -31 -269 l7 -73 -35 -35 c-30 -30 -42 -35 -81 -35 -52 0 -109 25
-145 64 l-24 25 -30 -47 c-96 -151 -213 -235 -363 -258 -47 -7 -143 15 -205
46 -22 12 -61 41 -85 66 -38 37 -46 41 -51 27 -53 -155 -104 -243 -183 -317
-100 -94 -236 -129 -352 -91 -29 10 -59 22 -65 28 -9 7 -13 5 -13 -5 0 -21
159 -92 240 -108 57 -12 74 -21 138 -77 40 -35 78 -60 84 -57 7 4 8 2 4 -4 -9
-15 155 -122 269 -176 272 -130 473 -172 779 -164 149 4 202 10 301 32 584
133 1063 580 1222 1141 15 54 31 91 36 88 11 -7 4 7 -24 48 -19 27 -23 51 -21
111 2 28 11 46 38 73 20 20 40 33 47 29 8 -5 8 -3 0 7 -7 7 -13 21 -13 31 0
10 -7 18 -15 18 -21 0 -90 45 -108 70 -13 18 -15 10 -20 -87z m-500 -118 c0
-8 -4 -12 -9 -9 -4 3 -8 9 -8 15 0 5 4 9 8 9 5 0 9 -7 9 -15z m302 -52 c-2
-31 -3 -33 -6 -10 -2 15 -10 27 -16 27 -10 0 10 19 21 20 1 0 1 -17 1 -37z
m-372 -10 c-4 -3 -1 -13 6 -22 11 -14 10 -14 -5 -2 -16 12 -16 31 -1 31 4 0 3
-3 0 -7z m311 -447 c-2 -29 -5 -33 -19 -25 -21 11 -31 -1 -18 -21 7 -13 9 -13
9 0 0 13 2 13 9 1 10 -16 4 -41 -10 -41 -5 0 -8 3 -7 8 1 4 -3 17 -9 28 -10
17 -9 25 2 40 8 11 14 14 15 7 0 -7 4 -13 9 -13 4 0 6 11 3 25 -2 15 0 25 7
25 7 0 11 -14 9 -34z m-208 -320 c0 -2 -7 -7 -16 -10 -8 -3 -12 -2 -9 4 6 10
25 14 25 6z"/>
<path d="M3280 2517 c0 -3 12 -12 26 -22 15 -9 23 -12 20 -6 -7 11 -46 35 -46
28z"/>
<path d="M4228 2513 c12 -2 30 -2 40 0 9 3 -1 5 -23 4 -22 0 -30 -2 -17 -4z"/>
<path d="M2710 2482 c-18 -15 -20 -19 -7 -19 10 0 15 3 12 5 -3 3 3 11 13 18
9 7 14 14 11 14 -4 0 -17 -8 -29 -18z"/>
<path d="M1196 2478 c3 -4 11 -5 19 -1 21 7 19 12 -4 10 -11 0 -18 -5 -15 -9z"/>
<path d="M1450 2486 c0 -2 7 -7 16 -10 8 -3 12 -2 9 4 -6 10 -25 14 -25 6z"/>
<path d="M2524 2479 c-3 -6 2 -18 12 -27 17 -16 17 -16 5 0 -7 9 -10 22 -6 28
3 5 4 10 1 10 -3 0 -8 -5 -12 -11z"/>
<path d="M3513 2473 c0 -10 4 -10 16 -1 9 7 18 13 20 15 2 1 -5 1 -16 0 -11 0
-20 -7 -20 -14z"/>
<path d="M3847 2465 c-8 -8 -17 -12 -21 -10 -3 3 -4 2 -1 -2 11 -14 32 -10 43
8 14 22 0 25 -21 4z"/>
<path d="M3810 2430 c6 -11 5 -21 -3 -29 -9 -9 -8 -14 3 -21 13 -9 13 -11 0
-21 -12 -8 -12 -10 -1 -7 8 2 20 20 26 39 12 32 11 35 -11 46 -21 10 -23 9
-14 -7z"/>
<path d="M1710 2436 c0 -2 8 -10 18 -17 15 -13 16 -12 3 4 -13 16 -21 21 -21
13z"/>
<path d="M969 2393 c-13 -16 -12 -17 4 -4 9 7 17 15 17 17 0 8 -8 3 -21 -13z"/>
<path d="M4260 2406 c0 -2 8 -10 18 -17 15 -13 16 -12 3 4 -13 16 -21 21 -21
13z"/>
<path d="M1045 2380 c-2 -3 5 -6 15 -7 11 -1 22 2 24 5 3 4 -4 8 -15 8 -11 0
-22 -3 -24 -6z"/>
<path d="M2195 2369 c-46 -21 -108 -24 -189 -7 -47 9 -59 9 -66 -2 -24 -39
-29 -251 -8 -315 12 -36 17 -40 45 -39 70 3 173 106 239 236 33 66 39 97 26
129 -6 14 -11 14 -47 -2z"/>
<path d="M3315 2370 c-3 -6 1 -7 9 -4 18 7 21 14 7 14 -6 0 -13 -4 -16 -10z"/>
<path d="M1816 2313 c-6 -14 -5 -15 5 -6 7 7 10 15 7 18 -3 3 -9 -2 -12 -12z"/>
<path d="M2913 2315 c0 -8 4 -12 9 -9 4 3 8 9 8 15 0 5 -4 9 -8 9 -5 0 -9 -7
-9 -15z"/>
<path d="M3276 2311 c-4 -5 -2 -12 3 -15 5 -4 12 -2 15 3 4 5 2 12 -3 15 -5 4
-12 2 -15 -3z"/>
<path d="M1219 2293 c-13 -16 -12 -17 4 -4 9 7 17 15 17 17 0 8 -8 3 -21 -13z"/>
<path d="M545 2260 c-2 -3 5 -6 15 -7 11 -1 22 2 24 5 3 4 -4 8 -15 8 -11 0
-22 -3 -24 -6z"/>
<path d="M1210 2267 c0 -2 6 -10 14 -16 11 -9 16 -9 22 1 4 7 4 10 -1 6 -4 -4
-14 -3 -22 3 -7 6 -13 9 -13 6z"/>
<path d="M2965 2230 c-3 -6 1 -7 9 -4 18 7 21 14 7 14 -6 0 -13 -4 -16 -10z"/>
<path d="M1318 2178 c-52 -37 -98 -107 -119 -183 -17 -62 -18 -216 0 -274 l12
-43 29 27 c61 59 117 236 127 403 3 56 4 102 2 102 -3 0 -26 -15 -51 -32z"/>
<path d="M586 2192 c-3 -5 1 -9 9 -9 8 0 15 4 15 9 0 4 -4 8 -9 8 -6 0 -12 -4
-15 -8z"/>
<path d="M1790 2116 c0 -2 7 -9 15 -16 9 -7 15 -8 15 -2 0 5 -7 12 -15 16 -8
3 -15 4 -15 2z"/>
<path d="M4175 2111 c-3 -5 -2 -12 3 -15 5 -3 9 1 9 9 0 17 -3 19 -12 6z"/>
<path d="M2259 2027 c6 -8 7 -18 3 -22 -4 -5 -1 -5 6 -1 10 6 10 11 1 22 -6 8
-14 14 -16 14 -3 0 0 -6 6 -13z"/>
<path d="M2490 2036 c0 -3 9 -10 20 -16 11 -6 20 -8 20 -6 0 3 -9 10 -20 16
-11 6 -20 8 -20 6z"/>
<path d="M3776 1999 c2 -11 6 -29 9 -41 2 -12 -1 -25 -7 -29 -17 -11 -5 -21
15 -14 9 4 14 16 12 31 -1 13 2 27 6 30 15 9 10 18 -15 30 -21 10 -24 9 -20
-7z m29 -17 c-3 -3 -11 0 -18 7 -9 10 -8 11 6 5 10 -3 15 -9 12 -12z"/>
<path d="M2086 1942 c-3 -5 1 -9 9 -9 8 0 12 4 9 9 -3 4 -7 8 -9 8 -2 0 -6 -4
-9 -8z"/>
<path d="M2167 1939 c7 -7 15 -10 18 -7 3 3 -2 9 -12 12 -14 6 -15 5 -6 -5z"/>
<path d="M1852 1905 c4 -4 3 -16 -3 -26 -5 -11 -7 -19 -5 -19 3 0 10 9 16 19
7 15 7 22 -2 27 -7 4 -10 4 -6 -1z"/>
<path d="M537 1881 c-4 -17 -3 -21 5 -13 5 5 8 16 6 23 -3 8 -7 3 -11 -10z"/>
<path d="M2165 1890 c-3 -6 1 -7 9 -4 18 7 21 14 7 14 -6 0 -13 -4 -16 -10z"/>
<path d="M2089 1833 c-13 -17 -13 -17 6 -3 11 8 22 16 24 17 2 2 0 3 -6 3 -6
0 -17 -8 -24 -17z"/>
<path d="M1526 1828 c3 -4 9 -8 15 -8 5 0 9 4 9 8 0 5 -7 9 -15 9 -8 0 -12 -4
-9 -9z"/>
<path d="M517 1819 c7 -7 15 -10 18 -7 3 3 -2 9 -12 12 -14 6 -15 5 -6 -5z"/>
<path d="M1096 1687 c3 -10 9 -15 12 -12 3 3 0 11 -7 18 -10 9 -11 8 -5 -6z"/>
<path d="M1325 1540 c-3 -6 1 -7 9 -4 18 7 21 14 7 14 -6 0 -13 -4 -16 -10z"/>
<path d="M875 1531 c-3 -5 0 -13 6 -17 7 -4 9 -3 5 4 -3 5 0 13 6 15 9 4 10 6
1 6 -6 1 -14 -3 -18 -8z"/>
<path d="M1286 1532 c-3 -5 1 -9 9 -9 8 0 12 4 9 9 -3 4 -7 8 -9 8 -2 0 -6 -4
-9 -8z"/>
<path d="M880 1475 c-7 -8 -9 -15 -5 -15 4 0 1 -8 -6 -17 -13 -17 -13 -17 7 0
11 9 21 24 21 32 0 19 -2 19 -17 0z"/>
<path d="M507 1439 c7 -7 15 -10 18 -7 3 3 -2 9 -12 12 -14 6 -15 5 -6 -5z"/>
<path d="M485 1311 c-3 -5 -2 -12 3 -15 5 -3 9 1 9 9 0 17 -3 19 -12 6z"/>
<path d="M463 1255 c0 -8 4 -12 9 -9 5 3 6 10 3 15 -9 13 -12 11 -12 -6z"/>
<path d="M410 1230 c-9 -6 -10 -10 -3 -10 6 0 15 5 18 10 8 12 4 12 -15 0z"/>
</g>
</svg>
